<svg id="visual" viewBox="0 0 900 600" width="900" height="600" xmlns="http://www.w3.org/2000/svg" xmlns:xlink="http://www.w3.org/1999/xlink" version="1.1"><g transform="translate(424.1426775562725 320.9578211924104)"><path d="M198.6 -236.3C257 -187.6 303.8 -124.7 322.9 -51.7C342 21.3 333.4 104.4 290.7 158.1C248.1 211.8 171.4 236 99.2 254.6C26.9 273.1 -40.9 286 -90.5 262.1C-140.2 238.3 -171.6 177.7 -207 118.5C-242.3 59.3 -281.7 1.3 -280.8 -57.4C-279.8 -116.1 -238.6 -175.7 -185.1 -225.2C-131.6 -274.8 -65.8 -314.4 2.1 -316.9C70.1 -319.5 140.1 -285 198.6 -236.3" fill="#066ac9"></path></g></svg>